<?xml version="1.0" encoding="UTF-8"?>
<svg xmlns="http://www.w3.org/2000/svg" viewBox="0 0 1024 1024">
  <defs>
    <style>
      .cls-1 {
        fill: #fff;
      }
    </style>
  </defs>
  <rect class="cls-1" width="1024" height="1024"/>
  <g id="Layer_1" data-name="Layer 1">
    <g id="Logo_1" data-name="Logo 1">
      <g>
        <polygon points="554.95 400 497.41 467.83 370.46 467.83 370.46 617.55 302.64 696.12 302.63 237.03 693.24 237 635.7 304.83 370.46 304.83 370.46 400 554.95 400"/>
        <path d="M495.89,772.33l-67.66,79.67v-252.92l220.71-.49c10.64,0,29.32-3.2,44.3-25.06,16.07-22.08,15.8-57.59,0-80.64-3.58-5.22-16.03-23.52-44.3-25.06l-109.45.03,57.67-67.86c12.93-.12,65.27-1.73,77.92.03,33.17,4.61,38.69,10.9,57.09,26.03,42.74,35.15,55.8,127.23,24.27,182.91-22.77,40.2-50.56,54.03-86.78,57.93h-173.77v105.42Z"/>
      </g>
    </g>
  </g>
</svg>